<?xml version="1.0" encoding="utf-8"?>
<!-- Generator: Adobe Illustrator 24.2.0, SVG Export Plug-In . SVG Version: 6.00 Build 0)  -->
<svg version="1.1" id="Layer_1" xmlns="http://www.w3.org/2000/svg" xmlns:xlink="http://www.w3.org/1999/xlink" x="0px" y="0px"
	 viewBox="0 0 24 24" style="enable-background:new 0 0 24 24;" xml:space="preserve">
<style type="text/css">
	.st0{fill:none;}
	.st1{fill:#1973BA;}
</style>
<path class="st0" d="M0,0h24v24H0V0z"/>
<path class="st1" d="M12,14v8H4C4,17.6,7.6,14,12,14z M12,13c-3.3,0-6-2.7-6-6s2.7-6,6-6s6,2.7,6,6S15.3,13,12,13z M14.6,18.8
	c-0.1-0.5-0.1-1.1,0-1.6l-1-0.6l1-1.7l1,0.6c0.4-0.4,0.9-0.7,1.4-0.8v-1.1h2v1.1c0.5,0.2,1,0.4,1.4,0.8l1-0.6l1,1.7l-1,0.6
	c0.1,0.5,0.1,1.1,0,1.6l1,0.6l-1,1.7l-1-0.6c-0.4,0.4-0.9,0.7-1.4,0.8v1.1h-2v-1.1c-0.5-0.2-1-0.4-1.4-0.8l-1,0.6l-1-1.7
	C13.6,19.4,14.6,18.8,14.6,18.8z M18,17c-0.6,0-1,0.4-1,1s0.4,1,1,1s1-0.4,1-1S18.6,17,18,17z"/>
</svg>
